<mxfile host="app.diagrams.net" modified="2021-09-29T06:03:32.794Z" agent="5.0 (Macintosh; Intel Mac OS X 10_15_7) AppleWebKit/537.36 (KHTML, like Gecko) Chrome/77.0.3865.120 Safari/537.36" etag="pnIM5VpkdUwQIDEVQ1Lv" version="15.3.7" type="github">
  <diagram id="ZoQLNWpljADJhTfMOQqx" name="Page-1">
    <mxGraphModel dx="903" dy="591" grid="0" gridSize="10" guides="1" tooltips="1" connect="1" arrows="1" fold="1" page="0" pageScale="1" pageWidth="827" pageHeight="1169" math="0" shadow="0">
      <root>
        <mxCell id="0" />
        <mxCell id="1" parent="0" />
        <mxCell id="s1gcI7M2cuCewwvfyK3X-1" value="tail" style="rounded=0;whiteSpace=wrap;html=1;fillColor=#fff2cc;strokeColor=#d6b656;" parent="1" vertex="1">
          <mxGeometry x="319" y="262.5" width="102" height="40" as="geometry" />
        </mxCell>
        <mxCell id="s1gcI7M2cuCewwvfyK3X-2" value="length" style="rounded=0;whiteSpace=wrap;html=1;fillColor=#b0e3e6;strokeColor=#0e8088;" parent="1" vertex="1">
          <mxGeometry x="319" y="302.5" width="102" height="40" as="geometry" />
        </mxCell>
        <mxCell id="s1gcI7M2cuCewwvfyK3X-4" value="level" style="rounded=0;whiteSpace=wrap;html=1;fillColor=#b0e3e6;strokeColor=#0e8088;" parent="1" vertex="1">
          <mxGeometry x="319" y="342.5" width="102" height="40" as="geometry" />
        </mxCell>
        <mxCell id="s1gcI7M2cuCewwvfyK3X-6" value="header" style="rounded=0;whiteSpace=wrap;html=1;fillColor=#fff2cc;strokeColor=#d6b656;" parent="1" vertex="1">
          <mxGeometry x="319" y="222.5" width="102" height="40" as="geometry" />
        </mxCell>
        <mxCell id="s1gcI7M2cuCewwvfyK3X-7" value="zskiplist" style="text;html=1;align=center;verticalAlign=middle;resizable=0;points=[];autosize=1;fillColor=#b0e3e6;strokeColor=#0e8088;" parent="1" vertex="1">
          <mxGeometry x="337" y="398.5" width="52" height="18" as="geometry" />
        </mxCell>
        <mxCell id="s1gcI7M2cuCewwvfyK3X-8" value="score" style="rounded=0;whiteSpace=wrap;html=1;fillColor=#d5e8d4;strokeColor=#82b366;" parent="1" vertex="1">
          <mxGeometry x="941" y="302.5" width="102" height="40" as="geometry" />
        </mxCell>
        <mxCell id="s1gcI7M2cuCewwvfyK3X-9" value="*backword" style="rounded=0;whiteSpace=wrap;html=1;fillColor=#f5f5f5;strokeColor=#666666;fontColor=#333333;" parent="1" vertex="1">
          <mxGeometry x="941" y="342.5" width="102" height="40" as="geometry" />
        </mxCell>
        <mxCell id="s1gcI7M2cuCewwvfyK3X-11" value="ele" style="rounded=0;whiteSpace=wrap;html=1;fillColor=#d5e8d4;strokeColor=#82b366;" parent="1" vertex="1">
          <mxGeometry x="941" y="262.5" width="102" height="40" as="geometry" />
        </mxCell>
        <mxCell id="s1gcI7M2cuCewwvfyK3X-14" value="*forward" style="rounded=0;whiteSpace=wrap;html=1;fillColor=#fff2cc;strokeColor=#d6b656;" parent="1" vertex="1">
          <mxGeometry x="941" y="130.5" width="102" height="22" as="geometry" />
        </mxCell>
        <mxCell id="s1gcI7M2cuCewwvfyK3X-15" value="span" style="rounded=0;whiteSpace=wrap;html=1;fillColor=#ffe6cc;strokeColor=#d79b00;" parent="1" vertex="1">
          <mxGeometry x="941" y="152.5" width="102" height="22" as="geometry" />
        </mxCell>
        <mxCell id="s1gcI7M2cuCewwvfyK3X-16" value="" style="strokeWidth=2;html=1;shape=mxgraph.flowchart.annotation_2;align=left;labelPosition=right;pointerEvents=1;direction=west;" parent="1" vertex="1">
          <mxGeometry x="1048" y="131.5" width="12" height="46" as="geometry" />
        </mxCell>
        <mxCell id="s1gcI7M2cuCewwvfyK3X-18" value="zskiplistLevel" style="text;html=1;align=center;verticalAlign=middle;resizable=0;points=[];autosize=1;fillColor=#b1ddf0;strokeColor=#10739e;" parent="1" vertex="1">
          <mxGeometry x="1075" y="144" width="80" height="18" as="geometry" />
        </mxCell>
        <mxCell id="s1gcI7M2cuCewwvfyK3X-19" value="*forward" style="rounded=0;whiteSpace=wrap;html=1;fillColor=#fff2cc;strokeColor=#d6b656;" parent="1" vertex="1">
          <mxGeometry x="941" y="174.5" width="102" height="22" as="geometry" />
        </mxCell>
        <mxCell id="s1gcI7M2cuCewwvfyK3X-20" value="span" style="rounded=0;whiteSpace=wrap;html=1;fillColor=#ffe6cc;strokeColor=#d79b00;" parent="1" vertex="1">
          <mxGeometry x="941" y="196.5" width="102" height="22" as="geometry" />
        </mxCell>
        <mxCell id="s1gcI7M2cuCewwvfyK3X-21" value="*forward" style="rounded=0;whiteSpace=wrap;html=1;fillColor=#fff2cc;strokeColor=#d6b656;" parent="1" vertex="1">
          <mxGeometry x="941" y="218.5" width="102" height="22" as="geometry" />
        </mxCell>
        <mxCell id="s1gcI7M2cuCewwvfyK3X-22" value="span" style="rounded=0;whiteSpace=wrap;html=1;fillColor=#ffe6cc;strokeColor=#d79b00;" parent="1" vertex="1">
          <mxGeometry x="941" y="240.5" width="102" height="22" as="geometry" />
        </mxCell>
        <mxCell id="s1gcI7M2cuCewwvfyK3X-23" value="" style="strokeWidth=2;html=1;shape=mxgraph.flowchart.annotation_2;align=left;labelPosition=right;pointerEvents=1;direction=east;" parent="1" vertex="1">
          <mxGeometry x="926" y="223.5" width="12" height="37" as="geometry" />
        </mxCell>
        <mxCell id="s1gcI7M2cuCewwvfyK3X-24" value="" style="strokeWidth=2;html=1;shape=mxgraph.flowchart.annotation_2;align=left;labelPosition=right;pointerEvents=1;direction=east;" parent="1" vertex="1">
          <mxGeometry x="926" y="180" width="12" height="37" as="geometry" />
        </mxCell>
        <mxCell id="s1gcI7M2cuCewwvfyK3X-25" value="" style="strokeWidth=2;html=1;shape=mxgraph.flowchart.annotation_2;align=left;labelPosition=right;pointerEvents=1;direction=east;" parent="1" vertex="1">
          <mxGeometry x="926" y="134.5" width="12" height="37" as="geometry" />
        </mxCell>
        <mxCell id="s1gcI7M2cuCewwvfyK3X-26" value="L0" style="text;html=1;align=center;verticalAlign=middle;resizable=0;points=[];autosize=1;fillColor=#fad7ac;strokeColor=#b46504;" parent="1" vertex="1">
          <mxGeometry x="893" y="233" width="24" height="18" as="geometry" />
        </mxCell>
        <mxCell id="s1gcI7M2cuCewwvfyK3X-27" value="L1" style="text;html=1;align=center;verticalAlign=middle;resizable=0;points=[];autosize=1;fillColor=#fad7ac;strokeColor=#b46504;" parent="1" vertex="1">
          <mxGeometry x="893" y="189.5" width="24" height="18" as="geometry" />
        </mxCell>
        <mxCell id="s1gcI7M2cuCewwvfyK3X-28" value="L2" style="text;html=1;align=center;verticalAlign=middle;resizable=0;points=[];autosize=1;fillColor=#fad7ac;strokeColor=#b46504;" parent="1" vertex="1">
          <mxGeometry x="893" y="145.5" width="24" height="18" as="geometry" />
        </mxCell>
        <mxCell id="s1gcI7M2cuCewwvfyK3X-29" value="zskiplistNode" style="text;html=1;align=center;verticalAlign=middle;resizable=0;points=[];autosize=1;fillColor=#b0e3e6;strokeColor=#0e8088;" parent="1" vertex="1">
          <mxGeometry x="953" y="398.5" width="80" height="18" as="geometry" />
        </mxCell>
        <mxCell id="s1gcI7M2cuCewwvfyK3X-189" style="edgeStyle=orthogonalEdgeStyle;curved=1;rounded=0;orthogonalLoop=1;jettySize=auto;html=1;exitX=1;exitY=0.75;exitDx=0;exitDy=0;entryX=0.5;entryY=1;entryDx=0;entryDy=0;" parent="1" source="s1gcI7M2cuCewwvfyK3X-30" target="s1gcI7M2cuCewwvfyK3X-174" edge="1">
          <mxGeometry relative="1" as="geometry">
            <Array as="points">
              <mxPoint x="1052" y="1024" />
            </Array>
          </mxGeometry>
        </mxCell>
        <mxCell id="s1gcI7M2cuCewwvfyK3X-30" value="tail" style="rounded=0;whiteSpace=wrap;html=1;fillColor=#fff2cc;strokeColor=#d6b656;" parent="1" vertex="1">
          <mxGeometry x="67" y="994" width="102" height="40" as="geometry" />
        </mxCell>
        <mxCell id="s1gcI7M2cuCewwvfyK3X-31" value="length:3" style="rounded=0;whiteSpace=wrap;html=1;fillColor=#b0e3e6;strokeColor=#0e8088;" parent="1" vertex="1">
          <mxGeometry x="67" y="1034" width="102" height="40" as="geometry" />
        </mxCell>
        <mxCell id="s1gcI7M2cuCewwvfyK3X-32" value="level:2" style="rounded=0;whiteSpace=wrap;html=1;fillColor=#b0e3e6;strokeColor=#0e8088;" parent="1" vertex="1">
          <mxGeometry x="67" y="1074" width="102" height="40" as="geometry" />
        </mxCell>
        <mxCell id="s1gcI7M2cuCewwvfyK3X-188" style="edgeStyle=orthogonalEdgeStyle;rounded=0;orthogonalLoop=1;jettySize=auto;html=1;exitX=1;exitY=0.25;exitDx=0;exitDy=0;entryX=0.5;entryY=1;entryDx=0;entryDy=0;curved=1;" parent="1" source="s1gcI7M2cuCewwvfyK3X-33" target="s1gcI7M2cuCewwvfyK3X-126" edge="1">
          <mxGeometry relative="1" as="geometry">
            <Array as="points">
              <mxPoint x="182" y="964" />
              <mxPoint x="182" y="993" />
              <mxPoint x="242" y="993" />
            </Array>
          </mxGeometry>
        </mxCell>
        <mxCell id="s1gcI7M2cuCewwvfyK3X-33" value="header" style="rounded=0;whiteSpace=wrap;html=1;fillColor=#fff2cc;strokeColor=#d6b656;" parent="1" vertex="1">
          <mxGeometry x="67" y="954" width="102" height="40" as="geometry" />
        </mxCell>
        <mxCell id="s1gcI7M2cuCewwvfyK3X-34" value="zskiplist" style="text;html=1;align=center;verticalAlign=middle;resizable=0;points=[];autosize=1;fillColor=#b0e3e6;strokeColor=#0e8088;" parent="1" vertex="1">
          <mxGeometry x="70" y="929" width="52" height="18" as="geometry" />
        </mxCell>
        <mxCell id="s1gcI7M2cuCewwvfyK3X-125" value="NULL" style="rounded=0;whiteSpace=wrap;html=1;fillColor=#d5e8d4;strokeColor=#82b366;" parent="1" vertex="1">
          <mxGeometry x="191" y="893" width="102" height="40" as="geometry" />
        </mxCell>
        <mxCell id="s1gcI7M2cuCewwvfyK3X-126" value="*backword" style="rounded=0;whiteSpace=wrap;html=1;fillColor=#f5f5f5;strokeColor=#666666;fontColor=#333333;" parent="1" vertex="1">
          <mxGeometry x="191" y="933" width="102" height="40" as="geometry" />
        </mxCell>
        <mxCell id="s1gcI7M2cuCewwvfyK3X-127" value="NULL" style="rounded=0;whiteSpace=wrap;html=1;fillColor=#d5e8d4;strokeColor=#82b366;" parent="1" vertex="1">
          <mxGeometry x="191" y="853" width="102" height="40" as="geometry" />
        </mxCell>
        <mxCell id="s1gcI7M2cuCewwvfyK3X-235" style="edgeStyle=orthogonalEdgeStyle;curved=1;rounded=0;orthogonalLoop=1;jettySize=auto;html=1;exitX=1;exitY=0.5;exitDx=0;exitDy=0;entryX=0.042;entryY=0.167;entryDx=0;entryDy=0;entryPerimeter=0;" parent="1" source="s1gcI7M2cuCewwvfyK3X-128" target="s1gcI7M2cuCewwvfyK3X-172" edge="1">
          <mxGeometry relative="1" as="geometry">
            <mxPoint x="407" y="744.9411764705881" as="targetPoint" />
          </mxGeometry>
        </mxCell>
        <mxCell id="s1gcI7M2cuCewwvfyK3X-128" value="*forward" style="rounded=0;whiteSpace=wrap;html=1;fillColor=#fff2cc;strokeColor=#d6b656;" parent="1" vertex="1">
          <mxGeometry x="191" y="721" width="102" height="22" as="geometry" />
        </mxCell>
        <mxCell id="s1gcI7M2cuCewwvfyK3X-129" value="2" style="rounded=0;whiteSpace=wrap;html=1;fillColor=#ffe6cc;strokeColor=#d79b00;" parent="1" vertex="1">
          <mxGeometry x="191" y="743" width="102" height="22" as="geometry" />
        </mxCell>
        <mxCell id="s1gcI7M2cuCewwvfyK3X-241" style="edgeStyle=orthogonalEdgeStyle;curved=1;rounded=0;orthogonalLoop=1;jettySize=auto;html=1;exitX=1;exitY=0.5;exitDx=0;exitDy=0;" parent="1" source="s1gcI7M2cuCewwvfyK3X-132" target="s1gcI7M2cuCewwvfyK3X-171" edge="1">
          <mxGeometry relative="1" as="geometry" />
        </mxCell>
        <mxCell id="s1gcI7M2cuCewwvfyK3X-132" value="*forward" style="rounded=0;whiteSpace=wrap;html=1;fillColor=#fff2cc;strokeColor=#d6b656;" parent="1" vertex="1">
          <mxGeometry x="191" y="765" width="102" height="22" as="geometry" />
        </mxCell>
        <mxCell id="s1gcI7M2cuCewwvfyK3X-133" value="2" style="rounded=0;whiteSpace=wrap;html=1;fillColor=#ffe6cc;strokeColor=#d79b00;" parent="1" vertex="1">
          <mxGeometry x="191" y="787" width="102" height="22" as="geometry" />
        </mxCell>
        <mxCell id="s1gcI7M2cuCewwvfyK3X-243" style="edgeStyle=orthogonalEdgeStyle;curved=1;rounded=0;orthogonalLoop=1;jettySize=auto;html=1;exitX=1;exitY=0.5;exitDx=0;exitDy=0;" parent="1" source="s1gcI7M2cuCewwvfyK3X-134" target="s1gcI7M2cuCewwvfyK3X-155" edge="1">
          <mxGeometry relative="1" as="geometry" />
        </mxCell>
        <mxCell id="s1gcI7M2cuCewwvfyK3X-134" value="*forward" style="rounded=0;whiteSpace=wrap;html=1;fillColor=#fff2cc;strokeColor=#d6b656;" parent="1" vertex="1">
          <mxGeometry x="191" y="809" width="102" height="22" as="geometry" />
        </mxCell>
        <mxCell id="s1gcI7M2cuCewwvfyK3X-135" value="1" style="rounded=0;whiteSpace=wrap;html=1;fillColor=#ffe6cc;strokeColor=#d79b00;" parent="1" vertex="1">
          <mxGeometry x="191" y="831" width="102" height="22" as="geometry" />
        </mxCell>
        <mxCell id="s1gcI7M2cuCewwvfyK3X-136" value="" style="strokeWidth=2;html=1;shape=mxgraph.flowchart.annotation_2;align=left;labelPosition=right;pointerEvents=1;direction=east;" parent="1" vertex="1">
          <mxGeometry x="176" y="814" width="12" height="37" as="geometry" />
        </mxCell>
        <mxCell id="s1gcI7M2cuCewwvfyK3X-137" value="" style="strokeWidth=2;html=1;shape=mxgraph.flowchart.annotation_2;align=left;labelPosition=right;pointerEvents=1;direction=east;" parent="1" vertex="1">
          <mxGeometry x="176" y="770.5" width="12" height="37" as="geometry" />
        </mxCell>
        <mxCell id="s1gcI7M2cuCewwvfyK3X-138" value="" style="strokeWidth=2;html=1;shape=mxgraph.flowchart.annotation_2;align=left;labelPosition=right;pointerEvents=1;direction=east;" parent="1" vertex="1">
          <mxGeometry x="176" y="725" width="12" height="37" as="geometry" />
        </mxCell>
        <mxCell id="s1gcI7M2cuCewwvfyK3X-139" value="L0" style="text;html=1;align=center;verticalAlign=middle;resizable=0;points=[];autosize=1;fillColor=#fad7ac;strokeColor=#b46504;" parent="1" vertex="1">
          <mxGeometry x="143" y="823.5" width="24" height="18" as="geometry" />
        </mxCell>
        <mxCell id="s1gcI7M2cuCewwvfyK3X-140" value="L1" style="text;html=1;align=center;verticalAlign=middle;resizable=0;points=[];autosize=1;fillColor=#fad7ac;strokeColor=#b46504;" parent="1" vertex="1">
          <mxGeometry x="143" y="780" width="24" height="18" as="geometry" />
        </mxCell>
        <mxCell id="s1gcI7M2cuCewwvfyK3X-141" value="L2" style="text;html=1;align=center;verticalAlign=middle;resizable=0;points=[];autosize=1;fillColor=#fad7ac;strokeColor=#b46504;" parent="1" vertex="1">
          <mxGeometry x="143" y="736" width="24" height="18" as="geometry" />
        </mxCell>
        <mxCell id="s1gcI7M2cuCewwvfyK3X-143" value="100" style="rounded=0;whiteSpace=wrap;html=1;fillColor=#d5e8d4;strokeColor=#82b366;" parent="1" vertex="1">
          <mxGeometry x="455" y="893" width="102" height="40" as="geometry" />
        </mxCell>
        <mxCell id="s1gcI7M2cuCewwvfyK3X-192" style="edgeStyle=orthogonalEdgeStyle;curved=1;rounded=0;orthogonalLoop=1;jettySize=auto;html=1;exitX=0;exitY=0.5;exitDx=0;exitDy=0;" parent="1" source="s1gcI7M2cuCewwvfyK3X-144" target="s1gcI7M2cuCewwvfyK3X-126" edge="1">
          <mxGeometry relative="1" as="geometry" />
        </mxCell>
        <mxCell id="s1gcI7M2cuCewwvfyK3X-144" value="*backword" style="rounded=0;whiteSpace=wrap;html=1;fillColor=#f5f5f5;strokeColor=#666666;fontColor=#333333;" parent="1" vertex="1">
          <mxGeometry x="455" y="933" width="102" height="40" as="geometry" />
        </mxCell>
        <mxCell id="s1gcI7M2cuCewwvfyK3X-145" value="a" style="rounded=0;whiteSpace=wrap;html=1;fillColor=#d5e8d4;strokeColor=#82b366;" parent="1" vertex="1">
          <mxGeometry x="455" y="853" width="102" height="40" as="geometry" />
        </mxCell>
        <mxCell id="s1gcI7M2cuCewwvfyK3X-244" style="edgeStyle=orthogonalEdgeStyle;curved=1;rounded=0;orthogonalLoop=1;jettySize=auto;html=1;exitX=1;exitY=0.5;exitDx=0;exitDy=0;entryX=0.086;entryY=0.819;entryDx=0;entryDy=0;entryPerimeter=0;" parent="1" source="s1gcI7M2cuCewwvfyK3X-150" target="s1gcI7M2cuCewwvfyK3X-170" edge="1">
          <mxGeometry relative="1" as="geometry" />
        </mxCell>
        <mxCell id="s1gcI7M2cuCewwvfyK3X-150" value="*forward" style="rounded=0;whiteSpace=wrap;html=1;fillColor=#fff2cc;strokeColor=#d6b656;" parent="1" vertex="1">
          <mxGeometry x="455" y="809" width="102" height="22" as="geometry" />
        </mxCell>
        <mxCell id="s1gcI7M2cuCewwvfyK3X-151" value="1" style="rounded=0;whiteSpace=wrap;html=1;fillColor=#ffe6cc;strokeColor=#d79b00;" parent="1" vertex="1">
          <mxGeometry x="455" y="831" width="102" height="22" as="geometry" />
        </mxCell>
        <mxCell id="s1gcI7M2cuCewwvfyK3X-155" value="L0" style="text;html=1;align=center;verticalAlign=middle;resizable=0;points=[];autosize=1;fillColor=#fad7ac;strokeColor=#b46504;" parent="1" vertex="1">
          <mxGeometry x="407" y="823.5" width="24" height="18" as="geometry" />
        </mxCell>
        <mxCell id="s1gcI7M2cuCewwvfyK3X-158" value="120" style="rounded=0;whiteSpace=wrap;html=1;fillColor=#d5e8d4;strokeColor=#82b366;" parent="1" vertex="1">
          <mxGeometry x="728" y="893" width="102" height="40" as="geometry" />
        </mxCell>
        <mxCell id="s1gcI7M2cuCewwvfyK3X-191" style="edgeStyle=orthogonalEdgeStyle;curved=1;rounded=0;orthogonalLoop=1;jettySize=auto;html=1;exitX=0;exitY=0.5;exitDx=0;exitDy=0;entryX=0.5;entryY=1;entryDx=0;entryDy=0;" parent="1" source="s1gcI7M2cuCewwvfyK3X-159" target="s1gcI7M2cuCewwvfyK3X-144" edge="1">
          <mxGeometry relative="1" as="geometry">
            <Array as="points">
              <mxPoint x="643" y="953" />
              <mxPoint x="643" y="993" />
              <mxPoint x="506" y="993" />
            </Array>
          </mxGeometry>
        </mxCell>
        <mxCell id="s1gcI7M2cuCewwvfyK3X-159" value="*backword" style="rounded=0;whiteSpace=wrap;html=1;fillColor=#f5f5f5;strokeColor=#666666;fontColor=#333333;" parent="1" vertex="1">
          <mxGeometry x="728" y="933" width="102" height="40" as="geometry" />
        </mxCell>
        <mxCell id="s1gcI7M2cuCewwvfyK3X-160" value="b" style="rounded=0;whiteSpace=wrap;html=1;fillColor=#d5e8d4;strokeColor=#82b366;" parent="1" vertex="1">
          <mxGeometry x="728" y="853" width="102" height="40" as="geometry" />
        </mxCell>
        <mxCell id="s1gcI7M2cuCewwvfyK3X-265" style="edgeStyle=orthogonalEdgeStyle;curved=1;rounded=0;orthogonalLoop=1;jettySize=auto;html=1;exitX=1;exitY=0.5;exitDx=0;exitDy=0;entryX=0.006;entryY=0.38;entryDx=0;entryDy=0;entryPerimeter=0;" parent="1" source="s1gcI7M2cuCewwvfyK3X-161" target="s1gcI7M2cuCewwvfyK3X-248" edge="1">
          <mxGeometry relative="1" as="geometry" />
        </mxCell>
        <mxCell id="s1gcI7M2cuCewwvfyK3X-161" value="*forward" style="rounded=0;whiteSpace=wrap;html=1;fillColor=#fff2cc;strokeColor=#d6b656;" parent="1" vertex="1">
          <mxGeometry x="728" y="721" width="102" height="22" as="geometry" />
        </mxCell>
        <mxCell id="s1gcI7M2cuCewwvfyK3X-162" value="1" style="rounded=0;whiteSpace=wrap;html=1;fillColor=#ffe6cc;strokeColor=#d79b00;" parent="1" vertex="1">
          <mxGeometry x="728" y="743" width="102" height="22" as="geometry" />
        </mxCell>
        <mxCell id="s1gcI7M2cuCewwvfyK3X-242" style="edgeStyle=orthogonalEdgeStyle;curved=1;rounded=0;orthogonalLoop=1;jettySize=auto;html=1;exitX=1;exitY=0.5;exitDx=0;exitDy=0;" parent="1" source="s1gcI7M2cuCewwvfyK3X-163" target="s1gcI7M2cuCewwvfyK3X-186" edge="1">
          <mxGeometry relative="1" as="geometry" />
        </mxCell>
        <mxCell id="s1gcI7M2cuCewwvfyK3X-163" value="*forward" style="rounded=0;whiteSpace=wrap;html=1;fillColor=#fff2cc;strokeColor=#d6b656;" parent="1" vertex="1">
          <mxGeometry x="728" y="765" width="102" height="22" as="geometry" />
        </mxCell>
        <mxCell id="s1gcI7M2cuCewwvfyK3X-164" value="1" style="rounded=0;whiteSpace=wrap;html=1;fillColor=#ffe6cc;strokeColor=#d79b00;" parent="1" vertex="1">
          <mxGeometry x="728" y="787" width="102" height="22" as="geometry" />
        </mxCell>
        <mxCell id="s1gcI7M2cuCewwvfyK3X-245" style="edgeStyle=orthogonalEdgeStyle;curved=1;rounded=0;orthogonalLoop=1;jettySize=auto;html=1;exitX=1;exitY=0.5;exitDx=0;exitDy=0;" parent="1" source="s1gcI7M2cuCewwvfyK3X-165" target="s1gcI7M2cuCewwvfyK3X-185" edge="1">
          <mxGeometry relative="1" as="geometry" />
        </mxCell>
        <mxCell id="s1gcI7M2cuCewwvfyK3X-165" value="*forward" style="rounded=0;whiteSpace=wrap;html=1;fillColor=#fff2cc;strokeColor=#d6b656;" parent="1" vertex="1">
          <mxGeometry x="728" y="809" width="102" height="22" as="geometry" />
        </mxCell>
        <mxCell id="s1gcI7M2cuCewwvfyK3X-166" value="1" style="rounded=0;whiteSpace=wrap;html=1;fillColor=#ffe6cc;strokeColor=#d79b00;" parent="1" vertex="1">
          <mxGeometry x="728" y="831" width="102" height="22" as="geometry" />
        </mxCell>
        <mxCell id="s1gcI7M2cuCewwvfyK3X-170" value="L0" style="text;html=1;align=center;verticalAlign=middle;resizable=0;points=[];autosize=1;fillColor=#fad7ac;strokeColor=#b46504;" parent="1" vertex="1">
          <mxGeometry x="680" y="823.5" width="24" height="18" as="geometry" />
        </mxCell>
        <mxCell id="s1gcI7M2cuCewwvfyK3X-171" value="L1" style="text;html=1;align=center;verticalAlign=middle;resizable=0;points=[];autosize=1;fillColor=#fad7ac;strokeColor=#b46504;" parent="1" vertex="1">
          <mxGeometry x="680" y="780" width="24" height="18" as="geometry" />
        </mxCell>
        <mxCell id="s1gcI7M2cuCewwvfyK3X-172" value="L2" style="text;html=1;align=center;verticalAlign=middle;resizable=0;points=[];autosize=1;fillColor=#fad7ac;strokeColor=#b46504;" parent="1" vertex="1">
          <mxGeometry x="680" y="736" width="24" height="18" as="geometry" />
        </mxCell>
        <mxCell id="s1gcI7M2cuCewwvfyK3X-173" value="200" style="rounded=0;whiteSpace=wrap;html=1;fillColor=#d5e8d4;strokeColor=#82b366;" parent="1" vertex="1">
          <mxGeometry x="1001" y="893" width="102" height="40" as="geometry" />
        </mxCell>
        <mxCell id="fwgqej0kjnYa4UQlgfrg-1" style="edgeStyle=orthogonalEdgeStyle;rounded=0;orthogonalLoop=1;jettySize=auto;html=1;exitX=0;exitY=0.5;exitDx=0;exitDy=0;fontSize=25;entryX=0.5;entryY=1;entryDx=0;entryDy=0;" parent="1" source="s1gcI7M2cuCewwvfyK3X-174" target="PRyL0fPVLdfjwFtkzawU-2" edge="1">
          <mxGeometry relative="1" as="geometry" />
        </mxCell>
        <mxCell id="s1gcI7M2cuCewwvfyK3X-174" value="*backword" style="rounded=0;whiteSpace=wrap;html=1;fillColor=#f5f5f5;strokeColor=#666666;fontColor=#333333;" parent="1" vertex="1">
          <mxGeometry x="1001" y="933" width="102" height="40" as="geometry" />
        </mxCell>
        <mxCell id="s1gcI7M2cuCewwvfyK3X-175" value="c" style="rounded=0;whiteSpace=wrap;html=1;fillColor=#d5e8d4;strokeColor=#82b366;" parent="1" vertex="1">
          <mxGeometry x="1001" y="853" width="102" height="40" as="geometry" />
        </mxCell>
        <mxCell id="s1gcI7M2cuCewwvfyK3X-178" value="*forward" style="rounded=0;whiteSpace=wrap;html=1;fillColor=#fff2cc;strokeColor=#d6b656;" parent="1" vertex="1">
          <mxGeometry x="1001" y="765" width="102" height="22" as="geometry" />
        </mxCell>
        <mxCell id="s1gcI7M2cuCewwvfyK3X-179" value="0" style="rounded=0;whiteSpace=wrap;html=1;fillColor=#ffe6cc;strokeColor=#d79b00;" parent="1" vertex="1">
          <mxGeometry x="1001" y="787" width="102" height="22" as="geometry" />
        </mxCell>
        <mxCell id="s1gcI7M2cuCewwvfyK3X-266" style="edgeStyle=orthogonalEdgeStyle;curved=1;rounded=0;orthogonalLoop=1;jettySize=auto;html=1;exitX=1;exitY=0.25;exitDx=0;exitDy=0;" parent="1" source="s1gcI7M2cuCewwvfyK3X-180" edge="1">
          <mxGeometry relative="1" as="geometry">
            <mxPoint x="1183.8000946044922" y="815" as="targetPoint" />
          </mxGeometry>
        </mxCell>
        <mxCell id="s1gcI7M2cuCewwvfyK3X-180" value="*forward" style="rounded=0;whiteSpace=wrap;html=1;fillColor=#fff2cc;strokeColor=#d6b656;" parent="1" vertex="1">
          <mxGeometry x="1001" y="809" width="102" height="22" as="geometry" />
        </mxCell>
        <mxCell id="s1gcI7M2cuCewwvfyK3X-181" value="0" style="rounded=0;whiteSpace=wrap;html=1;fillColor=#ffe6cc;strokeColor=#d79b00;" parent="1" vertex="1">
          <mxGeometry x="1001" y="831" width="102" height="22" as="geometry" />
        </mxCell>
        <mxCell id="s1gcI7M2cuCewwvfyK3X-185" value="L0" style="text;html=1;align=center;verticalAlign=middle;resizable=0;points=[];autosize=1;fillColor=#fad7ac;strokeColor=#b46504;" parent="1" vertex="1">
          <mxGeometry x="953" y="823.5" width="24" height="18" as="geometry" />
        </mxCell>
        <mxCell id="s1gcI7M2cuCewwvfyK3X-186" value="L1" style="text;html=1;align=center;verticalAlign=middle;resizable=0;points=[];autosize=1;fillColor=#fad7ac;strokeColor=#b46504;" parent="1" vertex="1">
          <mxGeometry x="953" y="780" width="24" height="18" as="geometry" />
        </mxCell>
        <mxCell id="s1gcI7M2cuCewwvfyK3X-262" style="edgeStyle=orthogonalEdgeStyle;curved=1;rounded=0;orthogonalLoop=1;jettySize=auto;html=1;exitX=1;exitY=0.5;exitDx=0;exitDy=0;" parent="1" source="s1gcI7M2cuCewwvfyK3X-205" edge="1">
          <mxGeometry relative="1" as="geometry">
            <mxPoint x="1181" y="600" as="targetPoint" />
          </mxGeometry>
        </mxCell>
        <mxCell id="s1gcI7M2cuCewwvfyK3X-205" value="*forward" style="rounded=0;whiteSpace=wrap;html=1;fillColor=#fff2cc;strokeColor=#d6b656;" parent="1" vertex="1">
          <mxGeometry x="191" y="589" width="102" height="22" as="geometry" />
        </mxCell>
        <mxCell id="s1gcI7M2cuCewwvfyK3X-206" value="3" style="rounded=0;whiteSpace=wrap;html=1;fillColor=#ffe6cc;strokeColor=#d79b00;" parent="1" vertex="1">
          <mxGeometry x="191" y="611" width="102" height="22" as="geometry" />
        </mxCell>
        <mxCell id="s1gcI7M2cuCewwvfyK3X-263" style="edgeStyle=orthogonalEdgeStyle;curved=1;rounded=0;orthogonalLoop=1;jettySize=auto;html=1;exitX=1;exitY=0.5;exitDx=0;exitDy=0;" parent="1" source="s1gcI7M2cuCewwvfyK3X-207" edge="1">
          <mxGeometry relative="1" as="geometry">
            <mxPoint x="1178.1667658487959" y="644.3333333333335" as="targetPoint" />
          </mxGeometry>
        </mxCell>
        <mxCell id="s1gcI7M2cuCewwvfyK3X-207" value="*forward" style="rounded=0;whiteSpace=wrap;html=1;fillColor=#fff2cc;strokeColor=#d6b656;" parent="1" vertex="1">
          <mxGeometry x="191" y="633" width="102" height="22" as="geometry" />
        </mxCell>
        <mxCell id="s1gcI7M2cuCewwvfyK3X-208" value="3" style="rounded=0;whiteSpace=wrap;html=1;fillColor=#ffe6cc;strokeColor=#d79b00;" parent="1" vertex="1">
          <mxGeometry x="191" y="655" width="102" height="22" as="geometry" />
        </mxCell>
        <mxCell id="s1gcI7M2cuCewwvfyK3X-264" style="edgeStyle=orthogonalEdgeStyle;curved=1;rounded=0;orthogonalLoop=1;jettySize=auto;html=1;exitX=1;exitY=0.5;exitDx=0;exitDy=0;" parent="1" source="s1gcI7M2cuCewwvfyK3X-209" edge="1">
          <mxGeometry relative="1" as="geometry">
            <mxPoint x="1180" y="688" as="targetPoint" />
          </mxGeometry>
        </mxCell>
        <mxCell id="s1gcI7M2cuCewwvfyK3X-209" value="*forward" style="rounded=0;whiteSpace=wrap;html=1;fillColor=#fff2cc;strokeColor=#d6b656;" parent="1" vertex="1">
          <mxGeometry x="191" y="677" width="102" height="22" as="geometry" />
        </mxCell>
        <mxCell id="s1gcI7M2cuCewwvfyK3X-210" value="3" style="rounded=0;whiteSpace=wrap;html=1;fillColor=#ffe6cc;strokeColor=#d79b00;" parent="1" vertex="1">
          <mxGeometry x="191" y="699" width="102" height="22" as="geometry" />
        </mxCell>
        <mxCell id="s1gcI7M2cuCewwvfyK3X-211" value="" style="strokeWidth=2;html=1;shape=mxgraph.flowchart.annotation_2;align=left;labelPosition=right;pointerEvents=1;direction=east;" parent="1" vertex="1">
          <mxGeometry x="176" y="682" width="12" height="37" as="geometry" />
        </mxCell>
        <mxCell id="s1gcI7M2cuCewwvfyK3X-212" value="" style="strokeWidth=2;html=1;shape=mxgraph.flowchart.annotation_2;align=left;labelPosition=right;pointerEvents=1;direction=east;" parent="1" vertex="1">
          <mxGeometry x="176" y="638.5" width="12" height="37" as="geometry" />
        </mxCell>
        <mxCell id="s1gcI7M2cuCewwvfyK3X-213" value="" style="strokeWidth=2;html=1;shape=mxgraph.flowchart.annotation_2;align=left;labelPosition=right;pointerEvents=1;direction=east;" parent="1" vertex="1">
          <mxGeometry x="176" y="593" width="12" height="37" as="geometry" />
        </mxCell>
        <mxCell id="s1gcI7M2cuCewwvfyK3X-214" value="L3" style="text;html=1;align=center;verticalAlign=middle;resizable=0;points=[];autosize=1;fillColor=#fad7ac;strokeColor=#b46504;" parent="1" vertex="1">
          <mxGeometry x="143" y="691.5" width="24" height="18" as="geometry" />
        </mxCell>
        <mxCell id="s1gcI7M2cuCewwvfyK3X-215" value="L..." style="text;html=1;align=center;verticalAlign=middle;resizable=0;points=[];autosize=1;fillColor=#fad7ac;strokeColor=#b46504;" parent="1" vertex="1">
          <mxGeometry x="142" y="648" width="27" height="18" as="geometry" />
        </mxCell>
        <mxCell id="s1gcI7M2cuCewwvfyK3X-216" value="L31" style="text;html=1;align=center;verticalAlign=middle;resizable=0;points=[];autosize=1;fillColor=#fad7ac;strokeColor=#b46504;" parent="1" vertex="1">
          <mxGeometry x="140" y="604" width="30" height="18" as="geometry" />
        </mxCell>
        <mxCell id="s1gcI7M2cuCewwvfyK3X-248" value="NULL" style="rounded=0;whiteSpace=wrap;html=1;fillColor=#f5f5f5;strokeColor=#666666;fontColor=#333333;" parent="1" vertex="1">
          <mxGeometry x="1184" y="584" width="102" height="389" as="geometry" />
        </mxCell>
        <mxCell id="PRyL0fPVLdfjwFtkzawU-1" value="200" style="rounded=0;whiteSpace=wrap;html=1;fillColor=#d5e8d4;strokeColor=#82b366;" parent="1" vertex="1">
          <mxGeometry x="870" y="1115" width="102" height="40" as="geometry" />
        </mxCell>
        <mxCell id="PRyL0fPVLdfjwFtkzawU-8" style="edgeStyle=orthogonalEdgeStyle;curved=1;rounded=0;orthogonalLoop=1;jettySize=auto;html=1;exitX=0;exitY=0.5;exitDx=0;exitDy=0;fontSize=30;" parent="1" source="PRyL0fPVLdfjwFtkzawU-2" edge="1">
          <mxGeometry relative="1" as="geometry">
            <mxPoint x="772" y="974.5" as="targetPoint" />
          </mxGeometry>
        </mxCell>
        <mxCell id="PRyL0fPVLdfjwFtkzawU-2" value="*backword" style="rounded=0;whiteSpace=wrap;html=1;fillColor=#f5f5f5;strokeColor=#666666;fontColor=#333333;" parent="1" vertex="1">
          <mxGeometry x="870" y="1155" width="102" height="40" as="geometry" />
        </mxCell>
        <mxCell id="PRyL0fPVLdfjwFtkzawU-3" value="c" style="rounded=0;whiteSpace=wrap;html=1;fillColor=#d5e8d4;strokeColor=#82b366;" parent="1" vertex="1">
          <mxGeometry x="870" y="1075" width="102" height="40" as="geometry" />
        </mxCell>
        <mxCell id="PRyL0fPVLdfjwFtkzawU-4" value="*forward" style="rounded=0;whiteSpace=wrap;html=1;fillColor=#fff2cc;strokeColor=#d6b656;" parent="1" vertex="1">
          <mxGeometry x="870" y="987" width="102" height="22" as="geometry" />
        </mxCell>
        <mxCell id="PRyL0fPVLdfjwFtkzawU-5" value="0" style="rounded=0;whiteSpace=wrap;html=1;fillColor=#ffe6cc;strokeColor=#d79b00;" parent="1" vertex="1">
          <mxGeometry x="870" y="1009" width="102" height="22" as="geometry" />
        </mxCell>
        <mxCell id="PRyL0fPVLdfjwFtkzawU-6" value="*forward" style="rounded=0;whiteSpace=wrap;html=1;fillColor=#fff2cc;strokeColor=#d6b656;" parent="1" vertex="1">
          <mxGeometry x="870" y="1031" width="102" height="22" as="geometry" />
        </mxCell>
        <mxCell id="PRyL0fPVLdfjwFtkzawU-7" value="0" style="rounded=0;whiteSpace=wrap;html=1;fillColor=#ffe6cc;strokeColor=#d79b00;" parent="1" vertex="1">
          <mxGeometry x="870" y="1053" width="102" height="22" as="geometry" />
        </mxCell>
      </root>
    </mxGraphModel>
  </diagram>
</mxfile>
